<svg width="24" height="24" viewBox="0 0 24 24" fill="none" xmlns="http://www.w3.org/2000/svg">
<path d="M14.3296 10.1714C15.9667 10.1714 16.9741 8 16.9741 6.62857C16.9741 5.48571 16.3444 4.11429 15.0852 4.11429C13.4481 4.11429 12.4407 6.28571 12.4407 7.65714C12.4407 8.8 13.0704 10.1714 14.3296 10.1714ZM9.54445 10.1714C10.8037 10.1714 11.4333 8.8 11.4333 7.65714C11.4333 6.17143 10.4259 4 8.78889 4C7.52963 4 6.9 5.37143 6.9 6.51429C6.77407 8 7.78148 10.1714 9.54445 10.1714ZM18.863 9.02857C17.2259 9.02857 16.0926 11.0857 16.0926 12.5714C16.0926 13.6 16.5963 14.6286 17.7296 14.6286C19.3667 14.6286 20.5 12.5714 20.5 11.0857C20.5 10.0571 19.8704 9.02857 18.863 9.02857ZM7.90741 12.5714C7.90741 11.0857 6.64815 9.02857 5.13704 9.02857C4.0037 9.02857 3.5 10.0571 3.5 11.0857C3.5 12.5714 4.75926 14.6286 6.27037 14.6286C7.4037 14.6286 7.90741 13.6 7.90741 12.5714ZM11.937 12.3429C9.41852 12.3429 6.01852 16 6.01852 18.5143C6.01852 19.6571 6.9 20 7.90741 20C9.41852 20 10.5519 19.0857 11.937 19.0857C13.1963 19.0857 14.3296 20 15.7148 20C16.7222 20 17.8556 19.7714 17.8556 18.5143C17.8556 16 14.4556 12.3429 11.937 12.3429Z" fill="#D5D5D5"/>
</svg>
