<svg width="24" height="24" viewBox="0 0 24 24" fill="none" xmlns="http://www.w3.org/2000/svg">
<path d="M15.4916 3C15.7464 3 15.9908 3.10124 16.171 3.28144C16.3512 3.46164 16.4525 3.70605 16.4525 3.96089V4.92178H18.3743C18.8591 4.92163 19.3261 5.10474 19.6816 5.43442C20.0371 5.76409 20.2549 6.21596 20.2912 6.69943L20.2961 6.84357V18.3743C20.2962 18.8591 20.1131 19.3261 19.7834 19.6816C19.4537 20.0371 19.0019 20.2549 18.5184 20.2912L18.3743 20.2961H4.92178C4.43694 20.2962 3.96996 20.1131 3.61444 19.7834C3.25893 19.4537 3.04117 19.0019 3.0048 18.5184L3 18.3743V6.84357C2.99985 6.35872 3.18296 5.89174 3.51263 5.53623C3.84231 5.18072 4.29417 4.96295 4.77765 4.92659L4.92178 4.92178H6.84357V3.96089C6.84357 3.70605 6.9448 3.46164 7.12501 3.28144C7.30521 3.10124 7.54961 3 7.80446 3C8.0593 3 8.30371 3.10124 8.48391 3.28144C8.66411 3.46164 8.76535 3.70605 8.76535 3.96089V4.92178H14.5307V3.96089C14.5307 3.70605 14.6319 3.46164 14.8121 3.28144C14.9923 3.10124 15.2367 3 15.4916 3ZM14.3616 9.12953L10.2855 13.2056L8.92582 11.8469C8.74459 11.6719 8.50187 11.575 8.24993 11.5772C7.99798 11.5794 7.75698 11.6805 7.57882 11.8586C7.40067 12.0368 7.29961 12.2778 7.29742 12.5297C7.29523 12.7817 7.39208 13.0244 7.56712 13.2056L9.59844 15.2379C9.68857 15.3281 9.7956 15.3997 9.9134 15.4485C10.0312 15.4973 10.1575 15.5225 10.285 15.5225C10.4125 15.5225 10.5388 15.4973 10.6566 15.4485C10.7744 15.3997 10.8814 15.3281 10.9716 15.2379L15.7203 10.4882C15.8121 10.3996 15.8853 10.2936 15.9356 10.1763C15.986 10.0591 16.0125 9.93301 16.0136 9.80542C16.0147 9.67783 15.9904 9.5513 15.9421 9.43321C15.8938 9.31512 15.8224 9.20784 15.7322 9.11762C15.642 9.0274 15.5347 8.95605 15.4166 8.90773C15.2985 8.85942 15.172 8.83511 15.0444 8.83622C14.9168 8.83732 14.7907 8.86383 14.6735 8.91419C14.5563 8.96455 14.4502 9.03775 14.3616 9.12953Z" fill="#D5D5D5"/>
</svg>
