<svg width="128" height="67" viewBox="0 0 128 67" fill="none" xmlns="http://www.w3.org/2000/svg">
<g filter="url(#filter0_d_96_1101)">
<mask id="path-1-inside-1_96_1101" fill="white">
<path fill-rule="evenodd" clip-rule="evenodd" d="M13 3C8.58172 3 5 6.58172 5 11V36C5 40.4183 8.58172 44 13 44H51.3838C51.4183 44.0592 51.455 44.1179 51.4942 44.176L61.0118 58.306C62.2009 60.0714 64.7991 60.0714 65.9882 58.306L75.5058 44.176C75.545 44.1179 75.5817 44.0592 75.6162 44H115C119.418 44 123 40.4183 123 36V11C123 6.58172 119.418 3 115 3H13Z"/>
</mask>
<path fill-rule="evenodd" clip-rule="evenodd" d="M13 3C8.58172 3 5 6.58172 5 11V36C5 40.4183 8.58172 44 13 44H51.3838C51.4183 44.0592 51.455 44.1179 51.4942 44.176L61.0118 58.306C62.2009 60.0714 64.7991 60.0714 65.9882 58.306L75.5058 44.176C75.545 44.1179 75.5817 44.0592 75.6162 44H115C119.418 44 123 40.4183 123 36V11C123 6.58172 119.418 3 115 3H13Z" fill="#F7FCFF"/>
<path d="M51.3838 44L53.1121 42.9936L52.5335 42H51.3838V44ZM51.4942 44.176L49.8354 45.2933L49.8354 45.2933L51.4942 44.176ZM61.0118 58.306L59.353 59.4233V59.4233L61.0118 58.306ZM65.9882 58.306L64.3294 57.1887H64.3294L65.9882 58.306ZM75.5058 44.176L73.8471 43.0586L73.847 43.0587L75.5058 44.176ZM75.6162 44V42H74.4665L73.8879 42.9936L75.6162 44ZM7 11C7 7.68629 9.68629 5 13 5V1C7.47715 1 3 5.47715 3 11H7ZM7 36V11H3V36H7ZM13 42C9.68629 42 7 39.3137 7 36H3C3 41.5228 7.47715 46 13 46V42ZM51.3838 42H13V46H51.3838V42ZM53.153 43.0587C53.1381 43.0366 53.1245 43.0149 53.1121 42.9936L49.6555 45.0064C49.712 45.1035 49.772 45.1992 49.8354 45.2933L53.153 43.0587ZM62.6706 57.1887L53.153 43.0587L49.8354 45.2933L59.353 59.4233L62.6706 57.1887ZM64.3294 57.1887C63.933 57.7771 63.067 57.7771 62.6706 57.1887L59.353 59.4233C61.3349 62.3656 65.6651 62.3656 67.647 59.4233L64.3294 57.1887ZM73.847 43.0587L64.3294 57.1887L67.647 59.4233L77.1646 45.2933L73.847 43.0587ZM73.8879 42.9936C73.8755 43.0149 73.8619 43.0366 73.8471 43.0586L77.1646 45.2934C77.228 45.1992 77.288 45.1035 77.3445 45.0064L73.8879 42.9936ZM115 42H75.6162V46H115V42ZM121 36C121 39.3137 118.314 42 115 42V46C120.523 46 125 41.5228 125 36H121ZM121 11V36H125V11H121ZM115 5C118.314 5 121 7.68629 121 11H125C125 5.47715 120.523 1 115 1V5ZM13 5H115V1H13V5Z" fill="#0B75AD" mask="url(#path-1-inside-1_96_1101)"/>
<path d="M32.7415 14.898H35.1355V31.62H32.7415V14.898ZM34.1635 21.162H37.0975V23.124H34.1635V21.162ZM22.0675 25.572H22.9135C24.1915 25.572 25.1995 25.554 26.4415 25.302L26.6215 27.246C25.3075 27.516 24.2635 27.534 22.9135 27.534H22.0675V25.572ZM22.0675 16.608H26.3515V18.498H24.4435V26.454H22.0675V16.608ZM27.2155 25.572H28.0975C29.9875 25.572 30.8695 25.536 31.9135 25.266L32.0935 27.21C30.9955 27.498 30.0955 27.534 28.0975 27.534H27.2155V25.572ZM27.2155 16.608H31.6975V18.498H29.5735V26.49H27.2155V16.608ZM38.8601 27.732H53.9441V29.676H38.8601V27.732ZM45.1781 24.168H47.5721V28.2H45.1781V24.168ZM40.4441 15.996H42.8201V18.552H49.9301V15.996H52.3061V24.672H40.4441V15.996ZM42.8201 20.424V22.764H49.9301V20.424H42.8201ZM60.9447 15.978H63.2667C63.2667 20.298 61.5387 23.304 56.9667 25.194L55.8507 23.484C59.6487 21.99 60.9447 19.794 60.9447 16.752V15.978ZM56.7147 15.978H61.6827V17.886H56.7147V15.978ZM61.0527 19.02V20.64L56.3187 21.162L56.0307 19.272L61.0527 19.02ZM67.8747 14.934H70.1427V24.69H67.8747V14.934ZM65.8767 18.804H68.5227V20.748H65.8767V18.804ZM64.2387 15.24H66.4707V24.564H64.2387V15.24ZM58.8567 25.338H70.1427V31.422H58.8567V25.338ZM67.8027 27.21H61.2147V29.532H67.8027V27.21ZM73.7593 16.176H82.7413V18.102H73.7593V16.176ZM73.5793 24.312L73.3273 22.368C76.1173 22.368 80.0773 22.314 83.3533 21.882L83.5333 23.61C80.1853 24.24 76.3333 24.312 73.5793 24.312ZM75.0733 17.706H77.3593V23.268H75.0733V17.706ZM79.1053 17.706H81.4273V23.268H79.1053V17.706ZM84.4873 14.952H86.8993V24.978H84.4873V14.952ZM81.2833 25.302C84.8113 25.302 87.0073 26.454 87.0073 28.434C87.0073 30.45 84.8113 31.602 81.2833 31.602C77.7553 31.602 75.5953 30.45 75.5953 28.434C75.5953 26.454 77.7553 25.302 81.2833 25.302ZM81.2833 27.12C79.1053 27.12 77.9713 27.552 77.9713 28.434C77.9713 29.352 79.1053 29.784 81.2833 29.784C83.4793 29.784 84.6133 29.352 84.6133 28.434C84.6133 27.552 83.4793 27.12 81.2833 27.12ZM93.8459 16.788H95.8079V17.832C95.8079 21.018 94.3139 23.88 91.0919 24.942L89.9039 23.052C92.6759 22.134 93.8459 19.956 93.8459 17.832V16.788ZM94.3319 16.788H96.2759V17.832C96.2759 19.776 97.3919 21.684 100.074 22.494L98.9399 24.366C95.7719 23.412 94.3319 20.802 94.3319 17.832V16.788ZM90.5339 16.05H99.5339V17.958H90.5339V16.05ZM100.866 14.934H103.26V24.816H100.866V14.934ZM102.594 18.768H105.474V20.73H102.594V18.768ZM97.8239 25.122C101.28 25.122 103.458 26.328 103.458 28.362C103.458 30.396 101.28 31.602 97.8239 31.602C94.3499 31.602 92.1719 30.396 92.1719 28.362C92.1719 26.328 94.3499 25.122 97.8239 25.122ZM97.8239 26.994C95.6999 26.994 94.5479 27.426 94.5479 28.362C94.5479 29.298 95.6999 29.766 97.8239 29.766C99.9479 29.766 101.082 29.298 101.082 28.362C101.082 27.426 99.9479 26.994 97.8239 26.994Z" fill="black"/>
</g>
<defs>
<filter id="filter0_d_96_1101" x="0.3" y="0.3" width="127.4" height="66.03" filterUnits="userSpaceOnUse" color-interpolation-filters="sRGB">
<feFlood flood-opacity="0" result="BackgroundImageFix"/>
<feColorMatrix in="SourceAlpha" type="matrix" values="0 0 0 0 0 0 0 0 0 0 0 0 0 0 0 0 0 0 127 0" result="hardAlpha"/>
<feOffset dy="2"/>
<feGaussianBlur stdDeviation="2.35"/>
<feComposite in2="hardAlpha" operator="out"/>
<feColorMatrix type="matrix" values="0 0 0 0 0 0 0 0 0 0 0 0 0 0 0 0 0 0 0.24 0"/>
<feBlend mode="normal" in2="BackgroundImageFix" result="effect1_dropShadow_96_1101"/>
<feBlend mode="normal" in="SourceGraphic" in2="effect1_dropShadow_96_1101" result="shape"/>
</filter>
</defs>
</svg>
