<svg width="125" height="47" viewBox="0 0 125 47" fill="none" xmlns="http://www.w3.org/2000/svg">
<path d="M23.6548 35.384C21.9268 35.384 20.3161 35.1067 18.8228 34.552C17.3508 33.976 16.0708 33.1653 14.9828 32.12C13.8948 31.0747 13.0414 29.848 12.4228 28.44C11.8254 27.032 11.5268 25.4853 11.5268 23.8C11.5268 22.1147 11.8254 20.568 12.4228 19.16C13.0414 17.752 13.8948 16.5253 14.9828 15.48C16.0921 14.4347 17.3828 13.6347 18.8548 13.08C20.3268 12.504 21.9374 12.216 23.6868 12.216C25.6281 12.216 27.3774 12.5573 28.9348 13.24C30.5134 13.9013 31.8361 14.8827 32.9028 16.184L29.5748 19.256C28.8068 18.3813 27.9534 17.7307 27.0148 17.304C26.0761 16.856 25.0521 16.632 23.9428 16.632C22.8974 16.632 21.9374 16.8027 21.0628 17.144C20.1881 17.4853 19.4308 17.976 18.7908 18.616C18.1508 19.256 17.6494 20.0133 17.2868 20.888C16.9454 21.7627 16.7748 22.7333 16.7748 23.8C16.7748 24.8667 16.9454 25.8373 17.2868 26.712C17.6494 27.5867 18.1508 28.344 18.7908 28.984C19.4308 29.624 20.1881 30.1147 21.0628 30.456C21.9374 30.7973 22.8974 30.968 23.9428 30.968C25.0521 30.968 26.0761 30.7547 27.0148 30.328C27.9534 29.88 28.8068 29.208 29.5748 28.312L32.9028 31.384C31.8361 32.6853 30.5134 33.6773 28.9348 34.36C27.3774 35.0427 25.6174 35.384 23.6548 35.384ZM34.0133 35L43.9973 12.6H49.1173L59.1333 35H53.6933L45.5013 15.224H47.5493L39.3253 35H34.0133ZM39.0053 30.2L40.3813 26.264H51.9013L53.3093 30.2H39.0053ZM62.4172 35V12.6H66.7052L76.2413 28.408H73.9693L83.3453 12.6H87.6013L87.6653 35H82.8013L82.7693 20.056H83.6653L76.1772 32.632H73.8413L66.1932 20.056H67.2812V35H62.4172ZM93.9398 35V12.6H103.636C105.641 12.6 107.369 12.9307 108.82 13.592C110.27 14.232 111.39 15.16 112.18 16.376C112.969 17.592 113.364 19.0427 113.364 20.728C113.364 22.392 112.969 23.832 112.18 25.048C111.39 26.264 110.27 27.2027 108.82 27.864C107.369 28.504 105.641 28.824 103.636 28.824H96.8198L99.1238 26.488V35H93.9398ZM99.1238 27.064L96.8198 24.6H103.348C104.948 24.6 106.142 24.2587 106.932 23.576C107.721 22.8933 108.116 21.944 108.116 20.728C108.116 19.4907 107.721 18.5307 106.932 17.848C106.142 17.1653 104.948 16.824 103.348 16.824H96.8198L99.1238 14.36V27.064Z" fill="#04101C"/>
</svg>
